<?xml version="1.0" encoding="utf-8"?>
<!-- Generator: Adobe Illustrator 16.0.3, SVG Export Plug-In . SVG Version: 6.00 Build 0)  -->
<!DOCTYPE svg PUBLIC "-//W3C//DTD SVG 1.1//EN" "http://www.w3.org/Graphics/SVG/1.1/DTD/svg11.dtd">
<svg version="1.1" id="Шар_1" xmlns="http://www.w3.org/2000/svg" xmlns:xlink="http://www.w3.org/1999/xlink" x="0px" y="0px"
	 width="220px" height="120px" viewBox="0 0 220 120" enable-background="new 0 0 220 120" xml:space="preserve">
<g>
	<path fill="#1C75BC" d="M1.525,86.81h29.869v1.271c-10.406,0-20.734,0-31.141,0V32.551h1.271V86.81z"/>
	<path fill="#1C75BC" d="M46.488,40.098c5.084-5.243,12.233-8.421,20.019-8.421c7.864,0,14.935,3.178,20.099,8.421
		c5.084,5.164,8.342,12.313,8.342,20.178c0,7.865-3.258,15.015-8.342,20.178c-5.164,5.242-12.234,8.42-20.099,8.42
		c-7.785,0-14.935-3.178-20.019-8.42c-5.084-5.163-8.342-12.313-8.342-20.178C38.146,52.412,41.404,45.262,46.488,40.098z
		 M85.731,41.052c-4.925-5.005-11.757-8.103-19.225-8.103s-14.22,3.098-19.146,8.103c-4.846,4.925-7.943,11.677-7.943,19.224
		c0,7.546,3.098,14.298,7.943,19.224c4.926,5.006,11.678,8.104,19.146,8.104s14.3-3.098,19.225-8.104
		c4.846-4.926,7.864-11.678,7.864-19.224C93.596,52.729,90.577,45.977,85.731,41.052z"/>
	<path fill="#1C75BC" d="M153.177,49.154c-3.813-9.93-13.346-15.888-23.594-15.888c-7.229,0-13.664,3.098-18.43,8.023
		c-4.607,4.925-7.548,11.598-7.548,19.066c0,7.467,2.94,14.219,7.548,19.064c4.766,5.006,11.2,8.024,18.43,8.024
		c11.121,0,22.958-8.818,25.023-20.574H130.06v-1.271h26.136c-0.158,1.905-0.635,3.733-1.351,5.561
		c-3.653,10.168-15.332,17.636-25.262,17.636c-7.548,0-14.379-3.256-19.305-8.421c-4.846-5.083-7.944-12.153-7.944-20.019
		c0-7.786,3.099-14.855,7.944-20.019c4.926-5.164,11.757-8.341,19.305-8.341c10.963,0,21.29,6.594,24.943,17.159H153.177z"/>
	<path fill="#1C75BC" d="M171.288,40.098c5.084-5.243,12.233-8.421,20.019-8.421c7.865,0,14.936,3.178,20.099,8.421
		c5.084,5.164,8.341,12.313,8.341,20.178c0,7.865-3.257,15.015-8.341,20.178c-5.163,5.242-12.233,8.42-20.099,8.42
		c-7.785,0-14.935-3.178-20.019-8.42c-5.084-5.163-8.342-12.313-8.342-20.178C162.946,52.412,166.204,45.262,171.288,40.098z
		 M210.531,41.052c-4.926-5.005-11.757-8.103-19.225-8.103c-7.467,0-14.22,3.098-19.145,8.103
		c-4.846,4.925-7.944,11.677-7.944,19.224c0,7.546,3.099,14.298,7.944,19.224c4.925,5.006,11.678,8.104,19.145,8.104
		c7.468,0,14.299-3.098,19.225-8.104c4.846-4.926,7.865-11.678,7.865-19.224C218.396,52.729,215.377,45.977,210.531,41.052z"/>
</g>
</svg>
