<?xml version="1.0" encoding="utf-8"?>
<!-- Generator: Adobe Illustrator 16.0.3, SVG Export Plug-In . SVG Version: 6.00 Build 0)  -->
<!DOCTYPE svg PUBLIC "-//W3C//DTD SVG 1.1//EN" "http://www.w3.org/Graphics/SVG/1.1/DTD/svg11.dtd">
<svg version="1.1" id="Шар_1" xmlns="http://www.w3.org/2000/svg" xmlns:xlink="http://www.w3.org/1999/xlink" x="0px" y="0px"
	 width="220px" height="120px" viewBox="0 0 220 120" enable-background="new 0 0 220 120" xml:space="preserve">
<g>
	<path fill="#F7941E" d="M0,22.046c0-0.744,0.651-1.442,1.395-1.442h16.886c0.745,0,1.443,0.698,1.443,1.442v44.657h20.374
		c0.698,0,1.256,0.604,1.256,1.35l-1.907,16.931c-0.14,0.697-0.791,1.349-1.535,1.349H1.395C0.651,86.332,0,85.681,0,84.983V22.046z
		"/>
	<path fill="#F7941E" d="M43.406,60.144c0-5.07,1.209-9.676,3.581-13.862c2.373-4.233,5.768-7.582,10.095-10.048
		c4.325-2.465,9.21-3.721,14.606-3.721c5.396,0,10.279,1.256,14.605,3.721c4.326,2.466,7.723,5.769,10.094,9.955
		c2.373,4.187,3.582,8.792,3.582,13.862s-1.209,9.674-3.582,13.908c-2.371,4.187-5.768,7.536-10.094,10.002
		c-4.326,2.465-9.21,3.72-14.605,3.72c-5.396,0-10.281-1.208-14.606-3.673c-4.327-2.466-7.722-5.815-10.095-10.002
		C44.615,69.819,43.406,65.213,43.406,60.144z M65.734,66.796c1.581,1.861,3.581,2.791,5.954,2.791c2.418,0,4.418-0.93,5.954-2.791
		c1.535-1.907,2.325-4.14,2.325-6.745c0-2.559-0.79-4.745-2.372-6.605c-1.535-1.908-3.535-2.838-5.907-2.838
		c-2.419,0-4.42,0.93-5.954,2.838c-1.535,1.86-2.326,4.093-2.326,6.698C63.408,62.703,64.199,64.889,65.734,66.796z"/>
	<path fill="#F7941E" d="M106.164,46.282c2.094-4.047,5.071-7.35,9.026-9.861c3.953-2.558,8.465-3.814,13.488-3.814
		c5.629,0,10.979,1.907,14.189,4.186l0.65-1.349c0.465-0.93,0.975-1.395,1.535-1.395h10.746c0.742,0,1.441,0.651,1.441,1.395v47.819
		c0,8.56-2.746,15.35-7.35,19.257c-4.514,3.955-10.375,5.908-17.119,5.908c-4.418,0-9.35-0.697-14.699-2.093
		c-0.836-0.233-1.164-0.791-1.023-1.628l3.023-14.561c0.186-0.743,0.885-1.255,1.629-1.069c4.744,1.069,8.326,1.628,10.699,1.628
		c3.906,0,5.07-2.14,5.209-6.279c-0.885,0.604-1.814,1.023-2.791,1.302c-0.977,0.233-1.814,0.419-2.605,0.466
		c-0.744,0.047-1.953,0.047-3.629,0.047c-5.023,0-9.488-1.257-13.441-3.722c-3.955-2.465-6.932-5.723-9.026-9.77
		c-2.046-4.045-3.069-8.512-3.069-13.303C103.047,54.748,104.071,50.329,106.164,46.282z M125.607,65.911
		c1.443,1.815,3.258,2.699,5.443,2.699c4.092,0,5.908-2.699,6.373-3.861l0.186-0.419v-9.628c-0.047-0.233-0.139-0.512-0.838-1.488
		c-0.883-1.256-2.65-2.791-5.721-2.791c-2.232,0-4.047,0.883-5.443,2.651c-1.395,1.768-2.094,3.907-2.094,6.373
		C123.514,61.958,124.213,64.098,125.607,65.911z"/>
	<path fill="#F7941E" d="M162.176,60.144c0-5.07,1.209-9.676,3.582-13.862c2.373-4.233,5.768-7.582,10.094-10.048
		c4.328-2.465,9.211-3.721,14.607-3.721c5.395,0,10.279,1.256,14.605,3.721c4.326,2.466,7.723,5.769,10.094,9.955
		c2.373,4.187,3.582,8.792,3.582,13.862s-1.209,9.674-3.582,13.908c-2.371,4.187-5.768,7.536-10.094,10.002
		c-4.326,2.465-9.211,3.72-14.605,3.72c-5.396,0-10.279-1.208-14.607-3.673c-4.326-2.466-7.721-5.815-10.094-10.002
		S162.176,65.213,162.176,60.144z M184.504,66.796c1.582,1.861,3.582,2.791,5.955,2.791c2.418,0,4.418-0.93,5.953-2.791
		c1.537-1.907,2.326-4.14,2.326-6.745c0-2.559-0.789-4.745-2.371-6.605c-1.535-1.908-3.535-2.838-5.908-2.838
		c-2.42,0-4.42,0.93-5.955,2.838c-1.535,1.86-2.324,4.093-2.324,6.698C182.18,62.703,182.969,64.889,184.504,66.796z"/>
</g>
</svg>
