<?xml version="1.0" encoding="utf-8"?>
<!-- Generator: Adobe Illustrator 16.0.3, SVG Export Plug-In . SVG Version: 6.00 Build 0)  -->
<!DOCTYPE svg PUBLIC "-//W3C//DTD SVG 1.1//EN" "http://www.w3.org/Graphics/SVG/1.1/DTD/svg11.dtd">
<svg version="1.1" id="Шар_1" xmlns="http://www.w3.org/2000/svg" xmlns:xlink="http://www.w3.org/1999/xlink" x="0px" y="0px"
	 width="220px" height="120px" viewBox="0 0 220 120" enable-background="new 0 0 220 120" xml:space="preserve">
<g>
	<path fill="#8DC63F" d="M24.6,30.67L14.12,79.863h27.809L39.9,89.584H0.934l12.51-58.914H24.6z"/>
	<path fill="#8DC63F" d="M102.702,59.578c-5.155,24.343-15.89,31.189-34.57,31.189c-18.765,0-26.625-6.847-21.469-31.189
		c5.07-23.921,15.807-30.345,34.486-30.345S107.774,35.657,102.702,59.578z M90.869,59.747c3.72-17.835,1.099-20.455-11.833-20.455
		c-12.933,0-16.736,2.62-20.455,20.455c-3.804,17.75-1.269,20.962,11.664,20.962C83.176,80.709,87.065,77.497,90.869,59.747z"/>
	<path fill="#8DC63F" d="M143.613,64.563h-12.85l2.029-9.381h24.258l-7.016,33.05c-5.154,1.521-14.623,2.535-21.469,2.535
		c-18.679,0-26.119-7.184-21.046-31.189c5.156-24.09,16.482-30.345,35.669-30.345c5.326,0,13.018,0.93,17.328,2.198l-4.396,9.721
		c-2.873-1.099-10.227-1.775-14.199-1.775c-13.355,0-18.68,2.197-22.484,20.286c-3.889,18.088,0.338,20.963,13.186,20.963
		c2.789,0,5.918-0.423,7.777-0.846L143.613,64.563z"/>
	<path fill="#8DC63F" d="M218.5,59.578c-5.154,24.343-15.891,31.189-34.57,31.189c-18.766,0-26.625-6.847-21.469-31.189
		c5.072-23.921,15.807-30.345,34.486-30.345S223.572,35.657,218.5,59.578z M206.668,59.747c3.719-17.835,1.098-20.455-11.834-20.455
		c-12.934,0-16.736,2.62-20.455,20.455c-3.805,17.75-1.268,20.962,11.666,20.962C198.977,80.709,202.863,77.497,206.668,59.747z"/>
</g>
</svg>
