<?xml version="1.0" encoding="utf-8"?>
<!-- Generator: Adobe Illustrator 16.0.3, SVG Export Plug-In . SVG Version: 6.00 Build 0)  -->
<!DOCTYPE svg PUBLIC "-//W3C//DTD SVG 1.1//EN" "http://www.w3.org/Graphics/SVG/1.1/DTD/svg11.dtd">
<svg version="1.1" id="Шар_1" xmlns="http://www.w3.org/2000/svg" xmlns:xlink="http://www.w3.org/1999/xlink" x="0px" y="0px"
	 width="220px" height="120px" viewBox="0 0 220 120" enable-background="new 0 0 220 120" xml:space="preserve">
<g>
	<path fill="#92278F" d="M28.249,28.765l-0.183,9.53l-0.182,15.183l0.045,11.08l0.182,23.48l3.278,0.047l19.484-0.32l3.551-0.045
		c1.791,0,2.686,0.539,2.686,1.617c0,0.957-0.486,1.479-1.458,1.572c-0.213,0.03-0.912,0.063-2.096,0.093H0.207l0.137-17.326
		l0.091-10.623l0.091-12.038L0.344,32.686l0.046-3.921H28.249z"/>
	<path fill="#92278F" d="M85.47,39.981c4.894,0,9.529,1.353,13.906,4.058c4.042,2.493,7.126,5.898,9.256,10.213
		c1.883,3.801,2.827,7.828,2.827,12.083c0,2.918-0.556,5.852-1.666,8.8c-1.11,2.949-2.622,5.563-4.536,7.842
		c-2.675,3.131-5.943,5.488-9.803,7.068c-3.162,1.306-6.459,1.961-9.895,1.961c-5.745,0-10.912-1.703-15.502-5.107
		c-3.587-2.614-6.308-5.974-8.162-10.076c-1.55-3.466-2.325-7.128-2.325-10.989c0-7.537,2.736-13.799,8.207-18.784
		C72.915,42.429,78.813,40.073,85.47,39.981z M84.147,42.899L84.01,88.905c0.943,0.062,1.596,0.091,1.961,0.091
		c4.225,0,8.268-1.187,12.128-3.561c3.709-2.313,6.491-5.386,8.344-9.22c1.46-3.041,2.19-6.389,2.19-10.041
		c0-7.332-2.707-13.281-8.116-17.844c-4.377-3.682-9.135-5.523-14.272-5.523C85.819,42.808,85.12,42.838,84.147,42.899z"/>
	<path fill="#92278F" d="M154.045,43.173c2.613,1.277,4.802,2.964,6.564,5.061c2.342,2.827,3.512,6.095,3.512,9.803
		c0,2.645-0.67,5.152-2.007,7.524c-1.338,2.37-3.207,4.361-5.606,5.974c-4.439,3.007-9.789,4.514-16.051,4.514
		c-2.89,0-5.548-0.26-7.979-0.775c-2.433-0.518-4.651-1.292-6.656-2.325c-1.429,0.973-2.144,1.96-2.144,2.963
		c0,1.185,0.805,1.886,2.417,2.098c3.495,0.455,5.896,0.593,7.204,0.409l0.274-0.044h13.632l0.684-0.047
		c4.56-0.274,7.842,0.487,9.849,2.28c1.55,1.429,2.326,3.101,2.326,5.016c0,1.611-0.548,3.071-1.642,4.377
		c-1.824,2.157-4.286,3.236-7.388,3.236c-0.578,0-1.307-0.029-2.188-0.09c0.486-0.761,0.729-1.353,0.729-1.777
		c0-0.943-0.851-1.415-2.553-1.415c-1.459,0-4.514,0.319-9.164,0.958c-3.253,0.457-5.944,0.685-8.07,0.685
		c-3.345,0-6.247-0.715-8.709-2.145c-1.429-0.82-2.554-1.943-3.375-3.374c-0.819-1.428-1.23-2.978-1.23-4.649
		c0-1.885,0.494-3.609,1.482-5.176c0.987-1.564,2.636-3.215,4.946-4.947c-2.158-1.368-3.83-3.152-5.016-5.356
		c-1.185-2.204-1.777-4.599-1.777-7.182c0-6.14,3.085-11.035,9.255-14.682c4.621-2.735,10.229-4.103,16.825-4.103
		c1.459,0,2.979,0.076,4.56,0.228c2.158,0.182,3.724,0.274,4.696,0.274c2.401,0,4.149-1.064,5.242-3.192
		c0.639-1.276,1.323-1.915,2.054-1.915c0.576,0,1.077,0.19,1.504,0.57c0.426,0.38,0.639,0.843,0.639,1.39
		c0,1.095-0.608,2.166-1.824,3.215C157.844,41.6,156.172,42.474,154.045,43.173z M136.125,48.188v19.287
		c0,2.311,0.183,3.738,0.548,4.285c0.608,0.882,1.87,1.322,3.784,1.322c1.763,0,2.94-0.417,3.533-1.254
		c0.593-0.836,0.89-2.484,0.89-4.947V48.28c0-2.067-0.297-3.45-0.89-4.149c-0.593-0.7-1.756-1.049-3.488-1.049
		c-1.731,0-2.895,0.349-3.488,1.049C136.423,44.83,136.125,46.182,136.125,48.188z"/>
	<path fill="#92278F" d="M193.804,39.981c4.893,0,9.528,1.353,13.905,4.058c4.043,2.493,7.128,5.898,9.257,10.213
		c1.884,3.801,2.827,7.828,2.827,12.083c0,2.918-0.556,5.852-1.664,8.8c-1.11,2.949-2.623,5.563-4.537,7.842
		c-2.676,3.131-5.943,5.488-9.804,7.068c-3.161,1.306-6.459,1.961-9.894,1.961c-5.745,0-10.912-1.703-15.502-5.107
		c-3.587-2.614-6.308-5.974-8.161-10.076c-1.551-3.466-2.326-7.128-2.326-10.989c0-7.537,2.735-13.799,8.207-18.784
		C181.249,42.429,187.146,40.073,193.804,39.981z M192.481,42.899l-0.137,46.006c0.941,0.062,1.596,0.091,1.96,0.091
		c4.226,0,8.269-1.187,12.129-3.561c3.708-2.313,6.489-5.386,8.344-9.22c1.459-3.041,2.188-6.389,2.188-10.041
		c0-7.332-2.707-13.281-8.115-17.844c-4.379-3.682-9.136-5.523-14.272-5.523C194.151,42.808,193.454,42.838,192.481,42.899z"/>
</g>
</svg>
