<?xml version="1.0" encoding="utf-8"?>
<!-- Generator: Adobe Illustrator 15.0.0, SVG Export Plug-In  -->
<!DOCTYPE svg PUBLIC "-//W3C//DTD SVG 1.1//EN" "http://www.w3.org/Graphics/SVG/1.1/DTD/svg11.dtd" [
	<!ENTITY ns_flows "http://ns.adobe.com/Flows/1.0/">
]>
<svg version="1.1"
	 xmlns="http://www.w3.org/2000/svg" xmlns:xlink="http://www.w3.org/1999/xlink" xmlns:a="http://ns.adobe.com/AdobeSVGViewerExtensions/3.0/"
	 x="0px" y="0px" width="160px" height="80px" viewBox="-7.601 -11 160 80" enable-background="new -7.601 -11 160 80"
	 xml:space="preserve">
<defs>
</defs>
<path fill="#F89521" d="M0,0.967C0,0.468,0.437,0,0.936,0h11.329c0.5,0,0.968,0.468,0.968,0.967v29.96h13.668
	c0.468,0,0.843,0.404,0.843,0.905l-1.28,11.359c-0.094,0.468-0.53,0.904-1.029,0.904H0.936C0.437,44.097,0,43.66,0,43.19V0.967z"/>
<path fill="#F89521" d="M29.121,26.527c0-3.401,0.811-6.491,2.402-9.299c1.592-2.84,3.869-5.087,6.773-6.742
	c2.901-1.653,6.179-2.496,9.799-2.496c3.62,0,6.896,0.843,9.798,2.496c2.903,1.655,5.182,3.871,6.772,6.679
	c1.592,2.809,2.403,5.899,2.403,9.3c0,3.402-0.811,6.49-2.403,9.331c-1.59,2.81-3.869,5.056-6.772,6.711
	c-2.902,1.653-6.179,2.496-9.798,2.496c-3.62,0-6.897-0.812-9.799-2.465c-2.904-1.653-5.181-3.901-6.773-6.71
	C29.932,33.018,29.121,29.928,29.121,26.527z M44.101,30.989c1.061,1.249,2.402,1.872,3.994,1.872c1.623,0,2.964-0.623,3.994-1.872
	c1.03-1.279,1.56-2.777,1.56-4.525c0-1.716-0.53-3.183-1.591-4.431c-1.03-1.28-2.372-1.904-3.963-1.904
	c-1.623,0-2.965,0.625-3.994,1.904c-1.03,1.248-1.561,2.746-1.561,4.493C42.54,28.244,43.071,29.71,44.101,30.989z"/>
<path fill="#F89521" d="M71.225,17.228c1.404-2.716,3.4-4.931,6.055-6.616c2.651-1.716,5.679-2.559,9.05-2.559
	c3.774,0,7.365,1.279,9.519,2.809l0.438-0.906c0.311-0.624,0.653-0.936,1.028-0.936h7.209c0.498,0,0.967,0.437,0.967,0.936v32.082
	c0,5.743-1.841,10.298-4.931,12.92c-3.027,2.652-6.961,3.963-11.485,3.963c-2.964,0-6.272-0.467-9.862-1.404
	c-0.56-0.155-0.779-0.529-0.686-1.092l2.028-9.769c0.125-0.499,0.594-0.842,1.093-0.717c3.182,0.717,5.587,1.092,7.178,1.092
	c2.621,0,3.402-1.437,3.494-4.213c-0.593,0.405-1.216,0.687-1.872,0.875c-0.654,0.154-1.216,0.28-1.747,0.312
	c-0.499,0.031-1.311,0.031-2.435,0.031c-3.369,0-6.364-0.843-9.017-2.496c-2.654-1.654-4.652-3.84-6.057-6.556
	c-1.373-2.714-2.059-5.711-2.059-8.924C69.133,22.907,69.82,19.942,71.225,17.228z M84.269,30.396
	c0.968,1.218,2.187,1.81,3.651,1.81c2.746,0,3.963-1.81,4.275-2.589l0.125-0.281v-6.459c-0.03-0.156-0.093-0.343-0.562-0.999
	c-0.593-0.842-1.778-1.872-3.839-1.872c-1.497,0-2.716,0.593-3.651,1.779c-0.936,1.185-1.405,2.621-1.405,4.275
	C82.864,27.744,83.334,29.18,84.269,30.396z"/>
<path fill="#F89521" d="M108.803,26.527c0-3.401,0.812-6.491,2.402-9.299c1.593-2.84,3.869-5.087,6.771-6.742
	c2.904-1.653,6.18-2.496,9.801-2.496c3.619,0,6.896,0.843,9.799,2.496c2.902,1.655,5.181,3.871,6.771,6.679
	c1.592,2.809,2.403,5.899,2.403,9.3c0,3.402-0.812,6.49-2.403,9.331c-1.591,2.81-3.869,5.056-6.771,6.711
	c-2.903,1.653-6.18,2.496-9.799,2.496c-3.621,0-6.896-0.812-9.801-2.465c-2.902-1.653-5.179-3.901-6.771-6.71
	C109.615,33.018,108.803,29.928,108.803,26.527z M123.782,30.989c1.062,1.249,2.404,1.872,3.996,1.872
	c1.621,0,2.964-0.623,3.994-1.872c1.031-1.279,1.56-2.777,1.56-4.525c0-1.716-0.528-3.183-1.59-4.431
	c-1.029-1.28-2.372-1.904-3.964-1.904c-1.624,0-2.966,0.625-3.996,1.904c-1.029,1.248-1.559,2.746-1.559,4.493
	C122.223,28.244,122.752,29.71,123.782,30.989z"/>
</svg>
