<?xml version="1.0" encoding="utf-8"?>
<!-- Generator: Adobe Illustrator 15.0.0, SVG Export Plug-In  -->
<!DOCTYPE svg PUBLIC "-//W3C//DTD SVG 1.1//EN" "http://www.w3.org/Graphics/SVG/1.1/DTD/svg11.dtd" [
	<!ENTITY ns_flows "http://ns.adobe.com/Flows/1.0/">
]>
<svg version="1.1"
	 xmlns="http://www.w3.org/2000/svg" xmlns:xlink="http://www.w3.org/1999/xlink" xmlns:a="http://ns.adobe.com/AdobeSVGViewerExtensions/3.0/"
	 x="0px" y="0px" width="160px" height="80px" viewBox="-8.863 -20.089 160 80" enable-background="new -8.863 -20.089 160 80"
	 xml:space="preserve">
<defs>
</defs>
<path fill="#8EC641" d="M15.62,0.949L8.703,33.417h18.354l-1.339,6.416H0L8.256,0.949H15.62L15.62,0.949z"/>
<path fill="#8EC641" d="M67.167,20.027c-3.403,16.066-10.488,20.585-22.816,20.585c-12.385,0-17.573-4.52-14.169-20.585
	C33.527,4.24,40.614,0,52.941,0C65.27,0,70.514,4.24,67.167,20.027z M59.356,20.139c2.456-11.771,0.726-13.5-7.809-13.5
	c-8.536,0-11.046,1.73-13.5,13.5c-2.511,11.715-0.837,13.835,7.698,13.835C54.28,33.974,56.847,31.854,59.356,20.139z"/>
<path fill="#8EC641" d="M94.168,23.317h-8.48l1.339-6.19h16.01L98.405,38.94c-3.401,1.004-9.65,1.673-14.169,1.673
	c-12.328,0-17.239-4.741-13.891-20.585C73.749,4.128,81.224,0,93.888,0c3.515,0,8.592,0.614,11.436,1.451l-2.9,6.416
	c-1.896-0.726-6.751-1.171-9.372-1.171c-8.814,0-12.328,1.45-14.839,13.389c-2.566,11.938,0.224,13.835,8.703,13.835
	c1.841,0,3.905-0.279,5.133-0.559L94.168,23.317z"/>
<path fill="#8EC641" d="M143.594,20.027c-3.403,16.066-10.488,20.585-22.816,20.585c-12.386,0-17.573-4.52-14.17-20.585
	C109.955,4.24,117.04,0,129.368,0C141.697,0,146.941,4.24,143.594,20.027z M135.783,20.139c2.456-11.771,0.726-13.5-7.81-13.5
	c-8.536,0-11.045,1.73-13.501,13.5c-2.51,11.715-0.836,13.835,7.7,13.835C130.708,33.974,133.272,31.854,135.783,20.139z"/>
</svg>
