<?xml version="1.0" encoding="utf-8"?>
<!-- Generator: Adobe Illustrator 15.0.0, SVG Export Plug-In  -->
<!DOCTYPE svg PUBLIC "-//W3C//DTD SVG 1.1//EN" "http://www.w3.org/Graphics/SVG/1.1/DTD/svg11.dtd" [
	<!ENTITY ns_flows "http://ns.adobe.com/Flows/1.0/">
]>
<svg version="1.1"
	 xmlns="http://www.w3.org/2000/svg" xmlns:xlink="http://www.w3.org/1999/xlink" xmlns:a="http://ns.adobe.com/AdobeSVGViewerExtensions/3.0/"
	 x="0px" y="0px" width="160px" height="80px" viewBox="-5.375 -20.459 160 80" enable-background="new -5.375 -20.459 160 80"
	 xml:space="preserve">
<defs>
</defs>
<path fill="#2075BC" d="M0.858,37.19h20.147v0.856c-7.019,0-13.986,0-21.005,0V0.589h0.857L0.858,37.19L0.858,37.19z"/>
<path fill="#2075BC" d="M31.187,5.681C34.616,2.144,39.438,0,44.69,0c5.305,0,10.074,2.144,13.558,5.681
	c3.429,3.483,5.627,8.305,5.627,13.61s-2.198,10.128-5.627,13.611c-3.483,3.535-8.252,5.68-13.558,5.68
	c-5.251,0-10.074-2.145-13.503-5.68c-3.43-3.482-5.627-8.306-5.627-13.611C25.56,13.987,27.757,9.164,31.187,5.681z M57.658,6.324
	c-3.322-3.376-7.931-5.465-12.968-5.465c-5.038,0-9.592,2.089-12.915,5.465c-3.269,3.322-5.358,7.877-5.358,12.967
	s2.09,9.644,5.358,12.967c3.323,3.377,7.877,5.466,12.915,5.466c5.037,0,9.646-2.089,12.968-5.466
	c3.269-3.323,5.304-7.877,5.304-12.967C62.963,14.201,60.926,9.646,57.658,6.324z"/>
<path fill="#2075BC" d="M103.152,11.789C100.58,5.091,94.15,1.072,87.238,1.072c-4.877,0-9.217,2.09-12.433,5.412
	c-3.107,3.322-5.091,7.823-5.091,12.86s1.983,9.591,5.091,12.859c3.216,3.376,7.556,5.413,12.433,5.413
	c7.501,0,15.485-5.948,16.878-13.878H87.56V22.88h17.629c-0.106,1.286-0.429,2.519-0.911,3.752
	c-2.465,6.858-10.342,11.896-17.04,11.896c-5.091,0-9.699-2.196-13.022-5.68c-3.269-3.429-5.358-8.198-5.358-13.504
	c0-5.252,2.09-10.02,5.358-13.503c3.323-3.483,7.932-5.626,13.022-5.626c7.395,0,14.36,4.448,16.824,11.574H103.152z"/>
<path fill="#2075BC" d="M115.369,5.681C118.798,2.144,123.621,0,128.872,0c5.306,0,10.075,2.144,13.559,5.681
	c3.429,3.483,5.626,8.305,5.626,13.61s-2.197,10.128-5.626,13.611c-3.483,3.535-8.252,5.68-13.559,5.68
	c-5.251,0-10.073-2.145-13.503-5.68c-3.429-3.482-5.627-8.306-5.627-13.611C109.742,13.987,111.94,9.164,115.369,5.681z
	 M141.84,6.324c-3.323-3.376-7.932-5.465-12.969-5.465c-5.036,0-9.592,2.089-12.914,5.465c-3.269,3.322-5.358,7.877-5.358,12.967
	s2.091,9.644,5.358,12.967c3.322,3.377,7.878,5.466,12.914,5.466c5.037,0,9.646-2.089,12.969-5.466
	c3.268-3.323,5.305-7.877,5.305-12.967S145.108,9.646,141.84,6.324z"/>
</svg>
