<?xml version="1.0" encoding="utf-8"?>
<!-- Generator: Adobe Illustrator 15.0.0, SVG Export Plug-In  -->
<!DOCTYPE svg PUBLIC "-//W3C//DTD SVG 1.1//EN" "http://www.w3.org/Graphics/SVG/1.1/DTD/svg11.dtd" [
	<!ENTITY ns_flows "http://ns.adobe.com/Flows/1.0/">
]>
<svg version="1.1"
	 xmlns="http://www.w3.org/2000/svg" xmlns:xlink="http://www.w3.org/1999/xlink" xmlns:a="http://ns.adobe.com/AdobeSVGViewerExtensions/3.0/"
	 x="0px" y="0px" width="160px" height="80px" viewBox="-5.675 -18.413 160 80" enable-background="new -5.675 -18.413 160 80"
	 xml:space="preserve">
<defs>
</defs>
<path fill="#922A8E" d="M19.062,0l-0.125,6.478l-0.124,10.321l0.031,7.532l0.124,15.959l2.229,0.032l13.244-0.217l2.414-0.03
	c1.217,0,1.826,0.365,1.826,1.098c0,0.651-0.33,1.006-0.991,1.069c-0.145,0.021-0.62,0.044-1.425,0.063H0l0.093-11.777l0.062-7.222
	l0.062-8.182L0.093,2.666L0.125,0H19.062z"/>
<path fill="#922A8E" d="M57.957,7.624c3.327,0,6.477,0.92,9.453,2.759c2.747,1.694,4.843,4.009,6.292,6.942
	c1.28,2.583,1.921,5.32,1.921,8.213c0,1.983-0.378,3.979-1.132,5.981c-0.755,2.005-1.783,3.782-3.084,5.331
	c-1.818,2.128-4.039,3.73-6.663,4.805c-2.149,0.888-4.39,1.333-6.726,1.333c-3.906,0-7.417-1.158-10.538-3.473
	c-2.438-1.775-4.288-4.06-5.548-6.848c-1.053-2.356-1.58-4.846-1.58-7.47c0-5.124,1.86-9.38,5.579-12.769
	C49.422,9.288,53.432,7.687,57.957,7.624z M57.058,9.607l-0.094,31.272c0.642,0.042,1.085,0.063,1.333,0.063
	c2.872,0,5.62-0.808,8.244-2.421c2.521-1.572,4.412-3.661,5.672-6.268c0.992-2.067,1.489-4.343,1.489-6.825
	c0-4.984-1.841-9.027-5.517-12.129c-2.976-2.503-6.21-3.754-9.701-3.754C58.194,9.545,57.719,9.566,57.058,9.607z"/>
<path fill="#922A8E" d="M104.57,9.793c1.775,0.869,3.265,2.015,4.462,3.44c1.592,1.922,2.387,4.143,2.387,6.663
	c0,1.798-0.455,3.503-1.364,5.114c-0.91,1.611-2.18,2.965-3.811,4.062c-3.018,2.044-6.654,3.067-10.91,3.067
	c-1.965,0-3.771-0.176-5.423-0.527c-1.655-0.351-3.162-0.877-4.525-1.579c-0.972,0.661-1.457,1.332-1.457,2.014
	c0,0.806,0.546,1.282,1.644,1.427c2.375,0.309,4.007,0.403,4.896,0.278l0.187-0.031h9.267l0.464-0.031
	c3.101-0.186,5.331,0.33,6.695,1.55c1.054,0.972,1.581,2.108,1.581,3.41c0,1.095-0.373,2.087-1.116,2.975
	c-1.24,1.467-2.912,2.199-5.021,2.199c-0.393,0-0.889-0.02-1.487-0.061c0.331-0.518,0.495-0.92,0.495-1.208
	c0-0.642-0.578-0.962-1.735-0.962c-0.992,0-3.068,0.217-6.229,0.651c-2.21,0.311-4.04,0.465-5.484,0.465
	c-2.274,0-4.247-0.485-5.92-1.457c-0.972-0.558-1.736-1.321-2.295-2.294c-0.557-0.971-0.835-2.024-0.835-3.16
	c0-1.281,0.335-2.454,1.007-3.519c0.671-1.063,1.791-2.185,3.362-3.362c-1.468-0.93-2.604-2.143-3.41-3.641
	c-0.806-1.498-1.207-3.127-1.207-4.882c0-4.174,2.096-7.501,6.289-9.98c3.142-1.858,6.954-2.789,11.438-2.789
	c0.992,0,2.025,0.052,3.1,0.156c1.468,0.124,2.531,0.186,3.192,0.186c1.632,0,2.82-0.724,3.563-2.17
	c0.434-0.867,0.898-1.302,1.396-1.302c0.391,0,0.731,0.129,1.021,0.388s0.435,0.573,0.435,0.945c0,0.744-0.414,1.472-1.239,2.185
	C107.151,8.725,106.016,9.318,104.57,9.793z M92.389,13.203v13.109c0,1.571,0.125,2.541,0.373,2.914
	c0.413,0.599,1.271,0.897,2.572,0.897c1.199,0,1.997-0.283,2.401-0.853c0.402-0.568,0.604-1.688,0.604-3.362V13.265
	c0-1.405-0.202-2.345-0.604-2.82c-0.404-0.476-1.193-0.713-2.371-0.713c-1.177,0-1.968,0.237-2.371,0.713
	C92.592,10.92,92.389,11.839,92.389,13.203z"/>
<path fill="#922A8E" d="M131.596,7.624c3.326,0,6.477,0.92,9.452,2.759c2.748,1.694,4.845,4.009,6.292,6.942
	c1.28,2.583,1.922,5.32,1.922,8.213c0,1.983-0.378,3.979-1.131,5.981c-0.755,2.005-1.783,3.782-3.084,5.331
	c-1.819,2.128-4.041,3.73-6.664,4.805c-2.149,0.888-4.392,1.333-6.726,1.333c-3.905,0-7.417-1.158-10.537-3.473
	c-2.439-1.775-4.288-4.06-5.549-6.848c-1.054-2.356-1.581-4.846-1.581-7.47c0-5.124,1.86-9.38,5.579-12.769
	C123.062,9.288,127.07,7.687,131.596,7.624z M130.696,9.607l-0.093,31.272c0.64,0.042,1.085,0.063,1.333,0.063
	c2.871,0,5.62-0.808,8.244-2.421c2.52-1.572,4.411-3.661,5.672-6.268c0.991-2.067,1.487-4.343,1.487-6.825
	c0-4.984-1.841-9.027-5.517-12.129c-2.977-2.503-6.21-3.754-9.701-3.754C131.831,9.545,131.357,9.566,130.696,9.607z"/>
</svg>
