<?xml version="1.0" encoding="utf-8"?>
<!-- Generator: Adobe Illustrator 16.0.3, SVG Export Plug-In . SVG Version: 6.00 Build 0)  -->
<!DOCTYPE svg PUBLIC "-//W3C//DTD SVG 1.1//EN" "http://www.w3.org/Graphics/SVG/1.1/DTD/svg11.dtd">
<svg version="1.1" id="Шар_1" xmlns="http://www.w3.org/2000/svg" xmlns:xlink="http://www.w3.org/1999/xlink" x="0px" y="0px"
	 width="127px" height="127px" viewBox="0 0 127 127" enable-background="new 0 0 127 127" xml:space="preserve">
<circle opacity="0.09" fill-rule="evenodd" clip-rule="evenodd" fill="#86A200" cx="63.5" cy="63.5" r="63.461"/>
<g opacity="0.1">
	<g>
		<path fill-rule="evenodd" clip-rule="evenodd" d="M79.492,72.627c-4.926,0-11.932,2.235-15.652,4.994
			c-4.917,3.646-2.272,8.231-2.183,8.231c0.039,0,0.078,0,0.118-0.001c0.194,0,14.34-4.107,19.901-8.23
			C85.395,74.862,84.419,72.627,79.492,72.627z"/>
	</g>
</g>
<path fill-rule="evenodd" clip-rule="evenodd" fill="#FFFFFF" d="M69.79,45.774c-2.09-1.455-4.396-2.371-6.965-2.522
	c-1.584-0.093-3.162-0.063-4.696,0.348c-3.083,0.826-5.682,2.458-7.706,4.972c-2.06,2.56-3.216,5.479-3.333,8.802
	c-0.082,2.306,0.368,4.503,1.195,6.641c1.439,3.717,3.482,7.079,5.813,10.273c1.625,2.226,3.389,4.336,5.244,6.366
	c0.796,0.87,1.621,1.713,2.444,2.58c0.182-0.165,0.341-0.306,0.495-0.451c1.658-1.56,3.208-3.223,4.688-4.956
	c2.35-2.751,4.437-5.687,6.102-8.913c1.576-3.055,2.836-6.218,3.027-9.72c0.086-1.575,0.056-3.151-0.336-4.677
	C74.826,50.877,72.864,47.912,69.79,45.774z"/>
<path fill-rule="evenodd" clip-rule="evenodd" fill="#CD3333" d="M61.603,41.161c7.778-0.007,14.577,5.598,16.176,13.309
	c0.641,3.089,0.397,6.126-0.422,9.138c-0.914,3.352-2.434,6.423-4.283,9.332c-2.863,4.506-6.309,8.515-10.248,12.088
	c-0.247,0.224-0.505,0.436-0.768,0.641c-0.31,0.247-0.386,0.252-0.662-0.026c-1.111-1.121-2.245-2.221-3.315-3.382
	c-3.011-3.263-5.766-6.733-8.124-10.515c-1.664-2.668-3.1-5.448-4.029-8.477c-0.55-1.794-0.881-3.623-0.858-5.508
	c0.099-7.864,5.635-14.686,13.213-16.246C59.37,41.292,61.599,41.135,61.603,41.161z M61.787,83.235
	c0.182-0.165,0.341-0.306,0.495-0.451c1.658-1.56,3.208-3.223,4.688-4.956c2.35-2.751,4.437-5.687,6.102-8.913
	c1.576-3.055,2.836-6.217,3.027-9.72c0.086-1.575,0.056-3.151-0.336-4.677c-0.937-3.641-2.898-6.606-5.973-8.744
	c-2.09-1.455-4.396-2.371-6.965-2.522c-1.584-0.093-3.162-0.063-4.696,0.348c-3.083,0.826-5.682,2.458-7.706,4.972
	c-2.06,2.56-3.216,5.479-3.333,8.802c-0.082,2.306,0.368,4.503,1.195,6.641c1.439,3.717,3.482,7.079,5.813,10.273
	c1.625,2.226,3.389,4.336,5.244,6.366C60.139,81.525,60.964,82.368,61.787,83.235z"/>
<path fill-rule="evenodd" clip-rule="evenodd" fill="#CD3333" d="M55.419,59.302c0.022-3.676,2.956-6.613,6.58-6.587
	c3.546,0.026,6.43,3.032,6.407,6.677c-0.022,3.598-2.974,6.553-6.524,6.533C58.313,65.904,55.399,62.918,55.419,59.302z"/>
</svg>
